# xmcd
# Track frame offsets:
# 150
# 23737
# 43855
# 59365
# 79010
# 96977
# 119810
# 134805
# 153182
# 167827
# 182747
# 204257
# 223732
# 244587
# 260935
# 283800
# 300530
# 318480
#
# Disc length: 4468 seconds
# Revision: 0
# Processed by: cddbd v1.5.2PL0 Copyright (c) Steve Scherf et al.
# Submitted via: VisiTrax 2.11.3.279 - For more info visit www.synapsa.com
#
DISCID=12117212
DTITLE=Marv Johnson - The Very best of the Motorcity Recordings
DYEAR=1900
DGENRE=
TTITLE0=Can't take another day
TTITLE1=Paper Kisses
TTITLE2=Whole lotta shankin' in my heart
TTITLE3=It's magic between us
TTITLE4=The Night
TTITLE5=Something's burning in my heart
TTITLE6=Gonna fix you good (Everytime you go bad)
TTITLE7=Look, it's raining sunshine
TTITLE8=Pull myself together
TTITLE9=I'll pick a Rose
TTITLE10=Heart for sale
TTITLE11=Better love next time
TTITLE12=Another chance
TTITLE13=Beware......there's danger
TTITLE14=Riding for a fall
TTITLE15=Come to me
TTITLE16=By hook or cook
TTITLE17=Nothing can stop me
EXTD=
EXTT0=
EXTT1=
EXTT2=
EXTT3=
EXTT4=
EXTT5=
EXTT6=
EXTT7=
EXTT8=
EXTT9=
EXTT10=
EXTT11=
EXTT12=
EXTT13=
EXTT14=
EXTT15=
EXTT16=
EXTT17=
PLAYORDER=
